<svg xmlns="http://www.w3.org/2000/svg" xmlns:xlink="http://www.w3.org/1999/xlink">
	<symbol id="icon-social-linkedin" viewBox="0 0 97.5 93.25">
    	<rect x="1.24" y="30.33" width="20.91" height="62.92" />
		<path d="M11.84,0C4.68,0,0,4.69,0,10.87S4.55,21.75,11.56,21.75h.14c7.3,0,11.83-4.84,11.83-10.88S19,0,11.84,0Z" />
		<path d="M73.5,28.85c-11.11,0-16.08,6.12-18.86,10.4v.2h-.13l.13-.2V30.33H33.73c.28,5.9,0,62.92,0,62.92H54.64V58.11a14.34,14.34,0,0,1,.7-5.1c1.51-3.76,4.95-7.65,10.73-7.65,7.57,0,10.6,5.77,10.6,14.23V93.25H97.58V57.17C97.58,37.84,87.26,28.85,73.5,28.85Z" />
	</symbol>

	<symbol id="icon-social-facebook" viewBox="0 0 128 274">
    	<path d="M27.64,53.08V90.8H0v46.14H27.64V274H84.43V136.94h38.09s3.56-22.13,5.29-46.32H84.63V59.08c0-4.71,6.18-11,12.31-11h30.93V0H85.82C26.24,0,27.64,46.18,27.64,53.08Z" />
    </symbol>

    <symbol id="icon-social-twitter"  viewBox="0 0 255.75 211">
	    <path d="M124.13,63.73S72.84,75.62,15.61,8.72c0,0-22.3,43.86,16.36,70.61,0,0-12.63,2.23-23-5.2,0,0-4.46,37.91,41.62,52.78H26s6.69,30.47,49.8,37.16c0,0-17.84,23.78-75.82,22.3,0,0,32.71,25.27,82.52,24.52,0,0,92.16,4.46,136-99.6,10.79-25.59,9.67-49.79,8.92-61.69L255.7,24.33l-28.25,5.2S246.78,15.41,249,2L217.79,14.67S194.38-6.52,154.61,2C154.6,2,118.19,9.47,124.13,63.73Z" />
	</symbol>
	
	<symbol id="icon-social-instagram" viewBox="0 0 150 150">
		<path d="M76.16,122.81c-12.76,0-14.43-.06-19.46-.29a35,35,0,0,1-11.47-2.19,24.2,24.2,0,0,1-13.81-13.81,35,35,0,0,1-2.19-11.47c-.23-5-.29-6.7-.29-19.46s.06-14.43.29-19.46a34.92,34.92,0,0,1,2.19-11.46A24.2,24.2,0,0,1,45.23,30.86a35,35,0,0,1,11.47-2.2c5-.23,6.69-.28,19.46-.28s14.44.05,19.46.28a35,35,0,0,1,11.46,2.2,24.2,24.2,0,0,1,13.81,13.81,35,35,0,0,1,2.2,11.46c.23,5,.28,6.71.28,19.46s-.05,14.43-.28,19.46a35,35,0,0,1-2.2,11.47,24.2,24.2,0,0,1-13.81,13.81,35,35,0,0,1-11.46,2.19C90.58,122.75,88.91,122.81,76.16,122.81Zm0-85.9c-12.62,0-14.11.05-19.08.28a26.08,26.08,0,0,0-8.76,1.62,15.65,15.65,0,0,0-9,8.95,26.28,26.28,0,0,0-1.62,8.76c-.23,5-.28,6.46-.28,19.07s.05,14.11.28,19.07a26.42,26.42,0,0,0,1.62,8.77,15.65,15.65,0,0,0,9,8.95A26.34,26.34,0,0,0,57.08,114c5,.23,6.46.27,19.08.27s14.1,0,19.07-.27a26.28,26.28,0,0,0,8.76-1.62,15.65,15.65,0,0,0,9-8.95,26.15,26.15,0,0,0,1.62-8.77c.23-5,.28-6.47.28-19.07s0-14.09-.28-19.07a26,26,0,0,0-1.62-8.76,15.65,15.65,0,0,0-9-8.95,26,26,0,0,0-8.76-1.62C90.26,37,88.77,36.91,76.16,36.91Z"/>
		<path d="M76.16,51.6a24,24,0,1,0,24,24,24,24,0,0,0-24-24m0,39.57A15.58,15.58,0,1,1,91.73,75.59,15.58,15.58,0,0,1,76.16,91.17"/>
		<path d="M107,50.4a5.67,5.67,0,1,1-5.67-5.67A5.66,5.66,0,0,1,107,50.4"/>
	</symbol>	

	<symbol id="icon-social-youtube" viewBox="0 0 164 183.25">
	    <path d="M156.36,80.91,18.84,2.52C8.47-3.38,0,1.45,0,13.24V170c0,11.79,8.47,16.62,18.84,10.71l137.52-78.39C166.7,96.47,166.7,86.81,156.36,80.91Z" />
	</symbol>

	<symbol id="icon-arrow-right-light-blue" viewBox="0 0 20 20">
	    <circle fill="#b6c4ca" cx="10" cy="10" r="10" />
	    <polyline fill="none" stroke="#244161" stroke-linecap="round" stroke-miterlimit="10" points="9.8 5.5 14.5 10 9.8 14.5" />
	    <line fill="none" stroke="#244161" stroke-linecap="round" stroke-miterlimit="10" x1="13.81" y1="10" x2="5.5" y2="10" />
	</symbol>

	<symbol id="icon-gold-lock" viewBox="0 0 20 28">
	    <path d="M10,3a3,3,0,0,1,3,3V9H7V6a3,3,0,0,1,3-3m0-3h0A6,6,0,0,0,4,6v6H16V6a6,6,0,0,0-6-6Z" />
	    <circle cx="10" cy="18" r="10" />
	    <circle fill="#ffffff" cx="10" cy="18.32" r="3.68" />
	    <polygon fill="#ffffff" points="10 12.9 8 10.9 12 10.9 10 12.9" />
	</symbol>

	<symbol id="icon-gold-map-pin" viewBox="0 0 15 20">
    	<path d="M15,7.5C15,11.64,7.5,20,7.5,20S0,11.64,0,7.5a7.5,7.5,0,0,1,15,0Z" />
	    <circle fill="#a57d3d" cx="7.5" cy="8.1" r="3.68" />
    	<circle fill="#ffffff" cx="7.5" cy="7.1" r="3.68" />
	</symbol>

	<symbol id="icon-gold-down" viewBox="0 0 20 20">
	    <circle cx="10" cy="10" r="10" />
	    <polygon fill="#ffffff" points="10 13.46 6.18 8.38 13.82 8.38 10 13.46" />
	</symbol>
</svg>
