<svg class="icon-social-instagram" xmlns="http://www.w3.org/2000/svg" viewBox="0 0 150 150">
	<path fill="#ffffff" d="M76.16,122.81c-12.76,0-14.43-.06-19.46-.29a35,35,0,0,1-11.47-2.19,24.2,24.2,0,0,1-13.81-13.81,35,35,0,0,1-2.19-11.47c-.23-5-.29-6.7-.29-19.46s.06-14.43.29-19.46a34.92,34.92,0,0,1,2.19-11.46A24.2,24.2,0,0,1,45.23,30.86a35,35,0,0,1,11.47-2.2c5-.23,6.69-.28,19.46-.28s14.44.05,19.46.28a35,35,0,0,1,11.46,2.2,24.2,24.2,0,0,1,13.81,13.81,35,35,0,0,1,2.2,11.46c.23,5,.28,6.71.28,19.46s-.05,14.43-.28,19.46a35,35,0,0,1-2.2,11.47,24.2,24.2,0,0,1-13.81,13.81,35,35,0,0,1-11.46,2.19C90.58,122.75,88.91,122.81,76.16,122.81Zm0-85.9c-12.62,0-14.11.05-19.08.28a26.08,26.08,0,0,0-8.76,1.62,15.65,15.65,0,0,0-9,8.95,26.28,26.28,0,0,0-1.62,8.76c-.23,5-.28,6.46-.28,19.07s.05,14.11.28,19.07a26.42,26.42,0,0,0,1.62,8.77,15.65,15.65,0,0,0,9,8.95A26.34,26.34,0,0,0,57.08,114c5,.23,6.46.27,19.08.27s14.1,0,19.07-.27a26.28,26.28,0,0,0,8.76-1.62,15.65,15.65,0,0,0,9-8.95,26.15,26.15,0,0,0,1.62-8.77c.23-5,.28-6.47.28-19.07s0-14.09-.28-19.07a26,26,0,0,0-1.62-8.76,15.65,15.65,0,0,0-9-8.95,26,26,0,0,0-8.76-1.62C90.26,37,88.77,36.91,76.16,36.91Z"/>
	<path fill="#ffffff" d="M76.16,51.6a24,24,0,1,0,24,24,24,24,0,0,0-24-24m0,39.57A15.58,15.58,0,1,1,91.73,75.59,15.58,15.58,0,0,1,76.16,91.17"/>
	<path fill="#ffffff" d="M107,50.4a5.67,5.67,0,1,1-5.67-5.67A5.66,5.66,0,0,1,107,50.4"/>
</svg>