<svg id="icon-social-linkedin" xmlns="http://www.w3.org/2000/svg" viewBox="0 0 97.5 93.25">
    <rect fill="#ffffff" x="1.24" y="30.33" width="20.91" height="62.92" />
    <path fill="#ffffff" d="M11.84,0C4.68,0,0,4.69,0,10.87S4.55,21.75,11.56,21.75h.14c7.3,0,11.83-4.84,11.83-10.88S19,0,11.84,0Z" />
    <path fill="#ffffff" d="M73.5,28.85c-11.11,0-16.08,6.12-18.86,10.4v.2h-.13l.13-.2V30.33H33.73c.28,5.9,0,62.92,0,62.92H54.64V58.11a14.34,14.34,0,0,1,.7-5.1c1.51-3.76,4.95-7.65,10.73-7.65,7.57,0,10.6,5.77,10.6,14.23V93.25H97.58V57.17C97.58,37.84,87.26,28.85,73.5,28.85Z" />
</svg>