<svg class="srjc-main-logo" xmlns="http://www.w3.org/2000/svg" xmlns:xlink="http://www.w3.org/1999/xlink" viewBox="-240 218 610 392">
	<path fill="#FFFFFF" d="M90.1,405.3c-1.5-3.9-4.5-8.2-8.7-12.1c-3-2.9-23.7-22.5-23.7-22.5l-1.3-1.1l-1.3,1.1
		c-0.9,0.9-8.8,8.3-15.3,14.3c-4,3.8-7.6,7.1-8.7,8.1c-2,1.9-5.8,6.1-8.6,12.5c-1.5,3.8-2,7.9-1.3,12.2c1.3,7.7,7.6,15.3,9.8,17.5
		c3,2.9,23.1,21.7,24,22.6l1.3,1.1l1.3-1.1c1.4-1.3,20.7-19.4,23.8-22.5c1.4-1.3,8.2-8.1,9.8-17.2C91.7,416,91.9,410.2,90.1,405.3z"
		/>
	<g class="oakleaf">
		<path fill="#002654" d="M61.5,431.9c-1,0-2.4,1.9-2.3,2.8c0,0.8,1.1,1.5,1.9,1.4c0.8,0,1.4-0.6,2-0.5c0.1,0,0.3,0,0.3-0.3
			c0-0.1-0.1-0.3-0.1-0.4s0-0.4,0-0.5C63.7,433.8,63.2,431.9,61.5,431.9z"/>
		<path fill="#002654" d="M58.4,438.4c-0.8-0.6-2.9-0.4-3.5,0.3c-0.5,0.5-0.4,1.8,0.3,2.3c0.5,0.5,1.4,0.9,1.6,1.4
			c0.1,0.1,0.3,0.1,0.4,0c0.1-0.1,0.1-0.1,0.5-0.6C58,441.4,59.8,439.7,58.4,438.4z"/>
		<path fill="#002654" d="M57.9,435.7c-0.9,0-1.5-0.8-1.6-0.8c-0.6,0-1.1,0.3-1.4,0.5c-1.3,0.9-0.9,2-0.8,2.3
			c0.1,0.3,0.3,0.3,0.4,0.1c0.8-0.9,3.2-1.3,3.9-0.5c0.1,0.1,0.6,0,0.5-0.5C59,436.7,58,436.5,57.9,435.7z"/>
		<path fill="#002654" d="M55.1,432.7c-0.3-1.1-2.5-2-3.5-1.8c-0.8,0.3-1.1,1.5-0.9,2.5c0.3,0.9,0.6,1.3,0.6,1.9
			c0,0.1,0.1,0.3,0.4,0.3c0.1,0,0.3-0.1,0.4-0.1c0.1-0.1,0.5,0,0.6,0C53.8,435.3,55.5,434.3,55.1,432.7z"/>
		<path fill="#002654" d="M55.7,431.7c0.1,0.3,0.5,0.3,0.8-0.1c0.5-0.9,0.3-1.9-0.9-2.8c-0.6-0.4-1.3-0.5-1.6-0.4
			c-1.5,0.1-2,1.1-2,1.5c0,0.3,0.1,0.4,0.3,0.3C53.3,429.6,55.4,430.7,55.7,431.7z"/>
		<path fill="#002654" d="M60.8,430.5c-0.6-0.6-1.8-0.6-2.8,0.1c0,0,0.1,1.4-1.1,2c-0.3,1.5,0.8,2,1,2s0.4,0,0.4-0.3
			c-0.1-1.3,1.4-3,2.5-3.2C61,431.2,61.2,430.8,60.8,430.5z"/>
		<path fill="#002654" d="M75.8,407.8c-0.8,0-0.6-0.1-1.4-0.5c-0.6-0.4-0.9-0.5-1.3-0.1c-0.4,0.4-0.3,1.6-0.6,1.8s-0.6-0.1-0.9-0.6
			c-0.1-0.5-0.4-1-1-0.5c-0.6,0.5-0.8,0.9-0.6,1.9c0,1,0.4,2-0.1,2c-0.5,0-0.6-0.1-1-0.9c-0.3-0.8-0.3-1-1-1.1
			c-0.8,0-1.3-0.9-1.4,0.4c-0.1,1.3,0.1,3.7,0.1,3.7s0.5,2.3,0,2.1c-0.4,0-0.1-0.6-0.8-1.4s-1.4-1-1.6-0.4c-0.3,0.6-1,0.8-0.5,2.1
			c0.5,1.4,1,2.1,0.1,2.3c-0.8,0-0.6-0.4-1.4,0c-0.8,0.3-0.8,0.8-1,1.6c-0.3,0.9-0.3,1-0.6,1.3c-0.4,0.3,0.3,1.5-0.1,2.3
			s-2,3.3-1.5,3.8c0.1,0.3,18-18.9,18-18.9S76.8,407.8,75.8,407.8z"/>
		<path fill="#002654" d="M59.9,428.4c0.1-0.5,18-19.1,18-19.1s0.4,0.3,0.4,0.9c0,0.5,0.4,0.9,0.5,1.1c0.1,0.3,0.4,1.5,0.1,1.8
			c-0.3,0.3-0.9,0.5-1.3,0.5c-0.4,0-1.1-0.3-1,0.1c0.1,0.4,1.4,0.3,1.5,0.6c0.1,0.5-0.1,1.4-0.5,1.5s-2.8,0.5-3.2,0.8
			c-0.4,0.4-0.4,0.4,0.6,0.8c1,0.4,1.8,0.4,1.9,1c0,0.6-0.1,1.8-0.9,1.9c-0.8,0-1.1-0.3-1.8-0.3s-1.6,0-2.8-0.1s-1.6,0.1-1.6,0.4
			c0,0.3,1,0.3,1.5,0.5s1.4,1,1.3,1.4c-0.1,0.4,0,1-0.8,1.1c-0.9,0.1-0.6,1-1.4,0.8s-1-0.4-1.6-0.6s-1.1-0.1-1.1,0.1
			c0,0.3,0.9,1,0.6,1.5c-0.1,0.5-0.6,0.9-1.1,1s-0.8,0.5-1.3,0.3c-0.5-0.3-1.1-0.3-1.1,0.1c0,0.4,0,0.8-0.8,0.9
			c-0.6,0.1-2.3,0.5-2.9,0.8C60.8,428.3,60.1,428.8,59.9,428.4z"/>
		<path fill="#002654" d="M55.7,388.1c0,0-1-0.1-1.5,0.5c-0.4,0.5-1.4,0.8-1.3,1.4s0,1.3,0.4,1.5c0.3,0.3-0.1,1.1-0.6,1
			c-0.4-0.3-0.4-0.3-0.9-0.9c-0.5-0.6-0.9-1.3-1.5-0.5c-0.6,0.8-1.9,2.8-0.9,3.7c1,1,2.1,2.1,2.3,2.8c0,0.5,0.5,0.9-0.1,1
			c-0.5,0.1-1.3,0-1.4-0.5c-0.1-0.4-0.6-1.9-1-1.9s-1.4-0.4-1.8,0.3c-0.4,0.5-0.4,1.9-0.4,2.6s-1,1.6,0,2.5c1.1,0.9,2.3,1,2.9,1.4
			c0.6,0.4,2,0.9,2.4,1.4c0.4,0.5,1.3,1.8,0.9,2c-0.5,0.1-1.1,0.8-1.8-0.1c-0.8-0.9-1.3-1.1-2.1-1.3c-0.9-0.1-2.3,0-2.8,0.5
			c-0.5,0.5-1,1.1-0.5,1.6c0.5,0.5,1.5,0.8,1.1,1.4c-0.3,0.6-0.6,1.8,0.4,1.9c0.9,0.1,2.5-0.6,3.3,0s0.9,1.5,1.3,2
			c0.5,0.5,1.4,1.3,1.1,1.6c-0.3,0.4-1.3,0.4-2,0.4c-0.8,0-1.3,0-1.1,0.8c0.1,0.8,1,1.5,1.6,2c0.6,0.5,0.6,1.5,0.5,2
			c-0.3,0.6,0.5,1.9,0.9,2c0.5,0.3,1,1.9,1.3,2.3c0.3,0.4,0.8,2,0.9,2.4c0,0.3,0.4,0.6,0.5,0.6C55.9,426.6,55.7,388.1,55.7,388.1z"
			/>
		<path fill="#002654" d="M57,388v38.6c0,0,0.3,0,0.4-0.3c0.4-0.5,0.8-1.6,0.6-2c-0.1-0.6,0.5-1.4,0.6-1.5c0.1-0.1,1.3-2,1.3-2.3
			c0-0.3,0-1.6,0.4-2.4c0.4-0.8,1.5-1.8,1.6-2c0.1-0.3,0.5-1.4,0.3-1.6c-0.3-0.3-1.1-0.4-1.6-0.3c-0.6,0.1-1.4,0.3-1.3-0.1
			c0.1-0.5,0.5-1.5,1-1.9c0.4-0.4,0.5-0.8,0.5-1c0-0.3,0.3-1,1-1c0.6,0,1.5,0.3,2.3,0.1c0.6-0.1,1.4-1,1.4-1.6c0-0.5,0-0.6,0.6-1
			c0.6-0.5,0.6-1,0.8-1.5c0.1-0.5,0.5-0.9-0.5-1.1c-0.6-0.1-1.1-0.6-1.9-0.5c-0.8,0.1-1.3,0.3-1.6,0.6c-0.4,0.4-1.5,1.3-1.9,1.1
			c-0.5-0.1-1.5,0-1.1-1c0.4-0.9,0.4-1.8,1.4-2c1.1-0.3,2.6-0.5,3.2-1c0.5-0.5,1.3-1,1.1-2c-0.3-1-0.1-2.4,0-3c0.1-0.6,0-1-0.6-1.3
			c-0.8-0.1-1.8,0.8-2,1.1c-0.3,0.4-0.6,1.3-1.1,1.1c-0.6,0-1.3,0-1-0.5c0.3-0.6,1.1-1.8,1.4-2c0.4-0.4,1.1-1.1,1-2
			c-0.1-0.8-0.5-1.5-0.5-1.6c0-0.3-0.1-1-0.5-1.1c-0.5-0.1-0.8-0.3-1.1,0.1c-0.9,0.3-1.3,1.5-1.5,1.5c-0.4,0-1.4-0.1-0.8-1.1
			c0.6-1,0.9-1.5,0.6-1.9c-0.3-0.4-0.5-0.4-0.8-0.9C57.7,387.9,57.4,388.1,57,388z"/>
		<path fill="#002654" d="M34.8,408.2l18.4,18.7c0,0,0.3-0.5,0-1c-0.4-0.6-0.1-0.9-0.3-1.4c-0.1-0.5,0-1.3-0.4-1.5
			c-0.3-0.3-0.4-0.8-0.9-1.1c-0.5-0.5-1-0.6-1-1c0-0.5-0.1-1.6-0.3-2.1c-0.1-0.5-0.8-0.6-0.8-1c0-0.4-0.3-0.9-0.6-1.1
			c-0.4-0.4-0.9-0.5-1-0.3c-0.1,0.3-0.3,2-0.5,1.9s-0.6-0.5-0.6-1c0-0.5,0-1.9,0.3-2.3c0.3-0.5,0.8-1,0.6-1.8
			c-0.3-0.9-0.4-1.4-0.9-1.6c-0.5-0.3-0.6-0.5-1-0.4c-0.5,0-1.3,0.6-1.4,1.1c-0.1,0.5,0.1,1.3-0.3,1.1c-0.5-0.1-0.8-0.8-0.6-1.4
			c0-0.5,0.1-1.5-0.3-2.1c-0.8-0.9-0.5-0.9-1.4-1.4c-0.9-0.5-1.4-1.1-1.8-0.9c-0.5,0.3-0.3,1.5-0.3,1.6c0,0.1,0,1.3-0.4,1
			c-0.3-0.3-0.3-0.9-0.4-1.4s-0.3-1-1-1s-1.1,0.5-1.3,0.5c-0.1,0-0.5,0-0.8,0C35.5,407.7,35.2,407.8,34.8,408.2z"/>
		<path fill="#002654" d="M52.3,427.6c0-0.1-18.3-18.5-18.3-18.5s-0.5,0.4-0.4,1c0,0.4,0.3,0.8,0.1,0.9s-0.4,0.6-0.1,1.1
			c0.1,0.5,0.8,0.8,1,0.9c0.3,0.1,1.1,0.4,1.1,0.5c0,0.3-1,0.3-1.3,0.3s-1.3,0.3-1.1,0.6c0.1,0.3,0.9,1.4,0.9,1.4s0.1,1.6,0.8,1.5
			c0.6-0.1,1.9,0,2.3,0c0.5,0,1.5-0.1,1.1,0.3c-0.3,0.5-2.1,0.6-2.4,1.1c-0.3,0.5-0.4,0.5,0.1,1.4c0.5,0.9,0.4,1.3,1.4,1.3
			s1.8,0.1,2.6-0.1c0.9-0.3,1.6-0.4,2.3,0c0.6,0.4,1.1,0.4,0.8,0.5c-0.4,0.3-1.3,0.4-1.6,0.9c-0.3,0.5-0.4,0.9,0.1,1.1
			s1.3-0.1,1.6,0.5c0.4,0.6-0.3,0.4,1.4,0.8c1.6,0.4,1.6-0.1,2,0.8c0.5,0.9,0,0.8,1.4,1c1.3,0.3,0.9-0.1,1.9,0.3
			C51.3,427.8,52.2,428,52.3,427.6z"/>
	</g>
	<g class="diamond">
		<path fill="#8C1515" d="M56.4,460.4l-1.3-1.1c-0.9-0.9-21.6-20.2-24.6-23.2c-2.4-2.4-8.8-10.2-10.1-18c-0.8-4.4-0.3-8.7,1.3-12.6
			c2.8-6.7,6.7-11,8.7-12.9c1.3-1.1,4.8-4.5,9-8.3c6.6-6.2,14.9-13.9,15.8-14.8l1.3-1.3l1.3,1.1c0,0,21.3,20.2,24.5,23.1
			c4.3,4,7.4,8.5,9,12.5c1.9,5,1.6,11,1.3,13.4c-1.6,9.3-8.7,16.4-10.1,17.7c-3.4,3.3-23.2,22-24.6,23.3L56.4,460.4z M56.4,373.4
			c-2.6,2.5-9,8.3-14.5,13.5c-4.2,3.8-7.7,7.2-9,8.3c-1.5,1.4-5.3,5.4-7.9,11.6c-1.4,3.3-1.8,6.8-1.1,10.6c1.1,6.9,7.1,14.1,9.1,16
			c2.6,2.5,18.7,17.5,23.3,22c4.8-4.5,20.6-19.4,23.2-21.8c0.8-0.8,7.4-7.3,9.1-15.6c0.4-2.4,0.5-7.4-1-11.5
			c-1-2.5-3.2-6.4-8.1-11.1C76.8,392.7,60.9,377.7,56.4,373.4z"/>
		<path fill="#8C1515" d="M56.4,452l-1.3-1.1c-0.8-0.6-17.7-16.3-20.2-18.8c-1.9-1.9-7.3-8.3-8.3-14.8c-0.6-3.7-0.3-7.2,1.1-10.3
			c2.4-5.7,5.8-9.2,7.2-10.6c1.1-1.1,5.3-4.9,9.5-8.7c4.9-4.5,10.1-9.2,10.7-9.8l1.3-1.1l1.3,1.1c0,0,17.4,16.3,19.9,18.7
			c3.5,3.3,6.2,6.8,7.4,10.2c1.6,4.2,1.4,9.1,1,11c-1.4,7.7-7.2,13.4-8.3,14.5c-2.4,2.1-18.8,17.5-20.1,18.7L56.4,452z M56.4,381.6
			c-1.9,1.8-5.8,5.3-9.5,8.7c-4.2,3.9-8.3,7.7-9.5,8.7c-1.3,1.1-4.3,4.3-6.4,9.3c-1.6,3.8-1,7.3-0.9,8.3c0.9,5.6,5.7,11.2,7.3,12.9
			c2.1,2,14.9,13.9,18.8,17.5c4.2-3.8,16.8-15.6,18.8-17.5c0.6-0.6,6.1-5.8,7.3-12.5c0.4-1.9,0.4-5.9-0.8-9.1
			c-1.1-2.8-3.4-5.9-6.6-8.8C72.9,397.1,60.3,385.4,56.4,381.6z"/>
		<path fill="#8C1515" d="M56.4,460.4l-1.3-1.1c-0.9-0.9-21.6-20.2-24.6-23.2c-2.4-2.4-8.8-10.2-10.1-18c-0.8-4.4-0.3-8.7,1.3-12.6
			c2.8-6.7,6.7-11,8.7-12.9c1.3-1.1,4.8-4.5,9-8.3c6.6-6.2,14.9-13.9,15.8-14.8l1.3-1.3l1.3,1.1c0,0,21.3,20.2,24.5,23.1
			c4.3,4,7.4,8.5,9,12.5c1.9,5,1.6,11,1.3,13.4c-1.6,9.3-8.7,16.4-10.1,17.7c-3.4,3.3-23.2,22-24.6,23.3L56.4,460.4z M56.4,373.4
			c-2.6,2.5-9,8.3-14.5,13.5c-4.2,3.8-7.7,7.2-9,8.3c-1.5,1.4-5.3,5.4-7.9,11.6c-1.4,3.3-1.8,6.8-1.1,10.6c1.1,6.9,7.1,14.1,9.1,16
			c2.6,2.5,18.7,17.5,23.3,22c4.8-4.5,20.6-19.4,23.2-21.8c0.8-0.8,7.4-7.3,9.1-15.6c0.4-2.4,0.5-7.4-1-11.5
			c-1-2.5-3.2-6.4-8.1-11.1C76.8,392.7,60.9,377.7,56.4,373.4z"/>
		<path fill="#8C1515" d="M56.4,452l-1.3-1.1c-0.8-0.6-17.7-16.3-20.2-18.8c-1.9-1.9-7.3-8.3-8.3-14.8c-0.6-3.7-0.3-7.2,1.1-10.3
			c2.4-5.7,5.8-9.2,7.2-10.6c1.1-1.1,5.3-4.9,9.5-8.7c4.9-4.5,10.1-9.2,10.7-9.8l1.3-1.1l1.3,1.1c0,0,17.4,16.3,19.9,18.7
			c3.5,3.3,6.2,6.8,7.4,10.2c1.6,4.2,1.4,9.1,1,11c-1.4,7.7-7.2,13.4-8.3,14.5c-2.4,2.1-18.8,17.5-20.1,18.7L56.4,452z M56.4,381.6
			c-1.9,1.8-5.8,5.3-9.5,8.7c-4.2,3.9-8.3,7.7-9.5,8.7c-1.3,1.1-4.3,4.3-6.4,9.3c-1.6,3.8-1,7.3-0.9,8.3c0.9,5.6,5.7,11.2,7.3,12.9
			c2.1,2,14.9,13.9,18.8,17.5c4.2-3.8,16.8-15.6,18.8-17.5c0.6-0.6,6.1-5.8,7.3-12.5c0.4-1.9,0.4-5.9-0.8-9.1
			c-1.1-2.8-3.4-5.9-6.6-8.8C72.9,397.1,60.3,385.4,56.4,381.6z"/>
	</g>
</svg>